<svg width="50" height="48" viewBox="0 0 50 48" fill="none" xmlns="http://www.w3.org/2000/svg">
<path fill-rule="evenodd" clip-rule="evenodd" d="M24.2188 0.274219C24.4405 0.0967146 24.716 0 25 0C25.284 0 25.5595 0.0967146 25.7812 0.274219L44.1875 14.9992H47.5V22.4992H2.5V14.9992H5.8125L24.2175 0.274219H24.2188ZM26.25 6.24922V8.74922H28.75V11.2492H26.25V13.7492H23.75V11.2492H21.25V8.74922H23.75V6.24922H26.25ZM25 24.9992C23.6739 24.9992 22.4021 25.526 21.4645 26.4637C20.5268 27.4014 20 28.6731 20 29.9992V39.9992H12.5V34.9992H10V24.9992H5V34.9992H2.5V39.9992H0V47.4992H50V39.9992H47.5V34.9992H45V24.9992H40V34.9992H37.5V39.9992H30V29.9992C30 28.6731 29.4732 27.4014 28.5355 26.4637C27.5979 25.526 26.3261 24.9992 25 24.9992ZM25 27.4992C25.663 27.4992 26.2989 27.7626 26.7678 28.2315C27.2366 28.7003 27.5 29.3362 27.5 29.9992V39.9992H22.5V29.9992C22.5 29.3362 22.7634 28.7003 23.2322 28.2315C23.7011 27.7626 24.337 27.4992 25 27.4992Z" fill="#2186FA"/>
</svg>
