<svg width="46" height="52" viewBox="0 0 46 52" fill="none" xmlns="http://www.w3.org/2000/svg">
<path d="M40.65 39.725C39.9567 40.4267 39.2683 41.125 38.6217 42.0117V43.6667H29V42.0117C29.1633 40.7233 29.995 38.4017 30.02 37.7567C30.0533 36.85 31.33 35.195 31.33 35.195L35.2433 30.4817C35.2433 30.4817 36.35 29.365 36.985 28.125C37.6183 26.885 38.9683 28.445 39.1467 29.56C39.325 30.6767 38.985 31.2633 38.985 31.2633L36.7483 35.5083C36.7483 35.5083 39.34 32.1167 40.145 30.7533C40.5533 30.0633 40.6667 28.6 40.795 26.9667C40.9183 25.3733 41.055 23.6183 41.4883 22.2533C42.3667 19.4867 44.9083 20.18 45.35 21.415C45.79 22.6517 45.69 30.8183 45.53 32.1783C45.405 33.245 44.7333 34.2883 43.9733 35.4633C43.7633 35.79 43.5467 36.125 43.3333 36.475C42.4833 37.8667 41.5617 38.8 40.65 39.725ZM30.6667 52C30.2246 52 29.8007 51.8244 29.4882 51.5118C29.1756 51.1993 29 50.7754 29 50.3333V47C29 46.558 29.1756 46.134 29.4882 45.8215C29.8007 45.5089 30.2246 45.3333 30.6667 45.3333H37.3333C37.7754 45.3333 38.1993 45.5089 38.5119 45.8215C38.8244 46.134 39 46.558 39 47V50.3333C39 50.7754 38.8244 51.1993 38.5119 51.5118C38.1993 51.8244 37.7754 52 37.3333 52H30.6667ZM5.595 39.725C6.29 40.4267 6.98001 41.125 7.62834 42.0117V43.6667H17.3333V42.0117C17.17 40.7233 16.8833 38.4017 16.8583 37.7567C16.8233 36.85 15.5433 35.195 15.5433 35.195L11.6183 30.4817C11.6183 30.4817 10.5067 29.365 9.87001 28.125C9.23501 26.885 7.88167 28.445 7.70167 29.56C7.52167 30.6767 7.86334 31.2633 7.86334 31.2633L10.1067 35.5083C10.1067 35.5083 7.50667 32.1167 6.69834 30.7533C6.29001 30.0633 6.17501 28.6 6.04834 26.9667C5.92334 25.3733 5.78667 23.6183 5.35167 22.2533C4.47 19.4867 1.91834 20.18 1.47667 21.415C1.03501 22.6517 0.536671 30.8183 0.696671 32.1783C0.823338 33.245 1.49667 34.2883 2.26001 35.4633C2.47001 35.79 2.68834 36.125 2.90167 36.475C3.755 37.8667 4.68 38.8 5.595 39.725ZM15.6667 52C16.1087 52 16.5326 51.8244 16.8452 51.5118C17.1577 51.1993 17.3333 50.7754 17.3333 50.3333V47C17.3333 46.558 17.1577 46.134 16.8452 45.8215C16.5326 45.5089 16.1087 45.3333 15.6667 45.3333H9.00001C8.55798 45.3333 8.13406 45.5089 7.82149 45.8215C7.50893 46.134 7.33334 46.558 7.33334 47V50.3333C7.33334 50.7754 7.50893 51.1993 7.82149 51.5118C8.13406 51.8244 8.55798 52 9.00001 52H15.6667ZM9.00001 10.6783C9.00001 5.31167 12.3633 0.333332 16.9683 0.333332C20.165 0.333332 22.535 2.56666 24 5.73333C25.4633 2.56666 27.835 0.333332 31.0317 0.333332C35.6367 0.333332 39 5.31167 39 10.6783C39 22.1667 24 30.3333 24 30.3333C24 30.3333 9.00001 22.66 9.00001 10.6783Z" fill="#2186FA"/>
</svg>
