<svg width="42" height="60" viewBox="0 0 42 60" fill="none" xmlns="http://www.w3.org/2000/svg">
<path fill-rule="evenodd" clip-rule="evenodd" d="M4.5 7.5C4.10218 7.5 3.72064 7.65804 3.43934 7.93934C3.15804 8.22064 3 8.60218 3 9V55.5C3 55.8978 3.15804 56.2794 3.43934 56.5607C3.72064 56.842 4.10218 57 4.5 57H37.5C37.8978 57 38.2794 56.842 38.5607 56.5607C38.842 56.2794 39 55.8978 39 55.5V9C39 8.60218 38.842 8.22064 38.5607 7.93934C38.2794 7.65804 37.8978 7.5 37.5 7.5H29.1255V4.5H37.5C38.6935 4.5 39.8381 4.97411 40.682 5.81802C41.5259 6.66193 42 7.80653 42 9V55.5C42 56.6935 41.5259 57.8381 40.682 58.682C39.8381 59.5259 38.6935 60 37.5 60H4.5C3.30653 60 2.16193 59.5259 1.31802 58.682C0.474105 57.8381 0 56.6935 0 55.5V9C0 7.80653 0.474105 6.66193 1.31802 5.81802C2.16193 4.97411 3.30653 4.5 4.5 4.5H12.8745V7.5H4.5Z" fill="#2186FA"/>
<path fill-rule="evenodd" clip-rule="evenodd" d="M10.5 4.5C10.5 3.30653 10.9741 2.16193 11.818 1.31802C12.6619 0.474106 13.8065 0 15 0H27C28.1935 0 29.3381 0.474106 30.182 1.31802C31.0259 2.16193 31.5 3.30653 31.5 4.5V7.5C31.5 8.69347 31.0259 9.83807 30.182 10.682C29.3381 11.5259 28.1935 12 27 12H15C13.8065 12 12.6619 11.5259 11.818 10.682C10.9741 9.83807 10.5 8.69347 10.5 7.5V4.5ZM15 3C14.6022 3 14.2206 3.15804 13.9393 3.43934C13.658 3.72064 13.5 4.10218 13.5 4.5V7.5C13.5 7.89782 13.658 8.27936 13.9393 8.56066C14.2206 8.84196 14.6022 9 15 9H27C27.3978 9 27.7794 8.84196 28.0607 8.56066C28.342 8.27936 28.5 7.89782 28.5 7.5V4.5C28.5 4.10218 28.342 3.72064 28.0607 3.43934C27.7794 3.15804 27.3978 3 27 3H15ZM7.5 25.5C7.5 25.1022 7.65804 24.7206 7.93934 24.4393C8.22064 24.158 8.60218 24 9 24H19.5C19.8978 24 20.2794 24.158 20.5607 24.4393C20.842 24.7206 21 25.1022 21 25.5C21 25.8978 20.842 26.2794 20.5607 26.5607C20.2794 26.842 19.8978 27 19.5 27H9C8.60218 27 8.22064 26.842 7.93934 26.5607C7.65804 26.2794 7.5 25.8978 7.5 25.5ZM7.5 18C7.5 17.6022 7.65804 17.2206 7.93934 16.9393C8.22064 16.658 8.60218 16.5 9 16.5H32.25C32.6478 16.5 33.0294 16.658 33.3107 16.9393C33.592 17.2206 33.75 17.6022 33.75 18C33.75 18.3978 33.592 18.7794 33.3107 19.0607C33.0294 19.342 32.6478 19.5 32.25 19.5H9C8.60218 19.5 8.22064 19.342 7.93934 19.0607C7.65804 18.7794 7.5 18.3978 7.5 18ZM10.5 37.5V40.5H13.5V37.5H10.5ZM9 34.5C8.60218 34.5 8.22064 34.658 7.93934 34.9393C7.65804 35.2206 7.5 35.6022 7.5 36V42C7.5 42.3978 7.65804 42.7794 7.93934 43.0607C8.22064 43.342 8.60218 43.5 9 43.5H15C15.3978 43.5 15.7794 43.342 16.0607 43.0607C16.342 42.7794 16.5 42.3978 16.5 42V36C16.5 35.6022 16.342 35.2206 16.0607 34.9393C15.7794 34.658 15.3978 34.5 15 34.5H9ZM27 37.5C27.2024 37.5093 27.4046 37.4774 27.5944 37.4064C27.7841 37.3354 27.9576 37.2266 28.1041 37.0867C28.2507 36.9468 28.3675 36.7787 28.4473 36.5924C28.5271 36.4062 28.5683 36.2057 28.5685 36.0031C28.5688 35.8004 28.5279 35.5999 28.4485 35.4135C28.369 35.2271 28.2526 35.0587 28.1063 34.9185C27.96 34.7783 27.7868 34.6692 27.5972 34.5978C27.4076 34.5264 27.2054 34.4941 27.003 34.503C26.6172 34.5199 26.2527 34.6849 25.9855 34.9638C25.7183 35.2427 25.5689 35.6138 25.5686 36.0001C25.5682 36.3863 25.7168 36.7578 25.9834 37.0372C26.25 37.3166 26.6142 37.4823 27 37.5ZM27 40.5C28.1935 40.5 29.3381 40.0259 30.182 39.182C31.0259 38.3381 31.5 37.1935 31.5 36C31.5 34.8065 31.0259 33.6619 30.182 32.818C29.3381 31.9741 28.1935 31.5 27 31.5C25.8065 31.5 24.6619 31.9741 23.818 32.818C22.9741 33.6619 22.5 34.8065 22.5 36C22.5 37.1935 22.9741 38.3381 23.818 39.182C24.6619 40.0259 25.8065 40.5 27 40.5ZM21 46.92C21.0262 46.8893 21.0537 46.8598 21.0825 46.8315C21.3285 46.5915 21.8025 46.2735 22.5465 45.957C24.0465 45.3195 25.8975 45 27 45C28.1025 45 29.9535 45.3195 31.4535 45.957C32.1975 46.272 32.6715 46.5915 32.9175 46.8315C32.9462 46.8593 32.9738 46.8883 33 46.9185V49.5H21V46.92ZM27 42C23.9955 42 18 43.599 18 46.773V52.5H36V46.773C36 43.599 30.0045 42 27 42Z" fill="#2186FA"/>
</svg>
