<svg width="58" height="31" viewBox="0 0 58 31" fill="none" xmlns="http://www.w3.org/2000/svg">
<circle cx="42.5" cy="15.5" r="15.5" fill="#2186FA"/>
<path d="M48.0607 17.0607C48.6464 16.4749 48.6464 15.5251 48.0607 14.9393L38.5147 5.3934C37.9289 4.80761 36.9792 4.80761 36.3934 5.3934C35.8076 5.97919 35.8076 6.92893 36.3934 7.51472L44.8787 16L36.3934 24.4853C35.8076 25.0711 35.8076 26.0208 36.3934 26.6066C36.9792 27.1924 37.9289 27.1924 38.5147 26.6066L48.0607 17.0607ZM0 17.5H47V14.5H0V17.5Z" fill="white"/>
<mask id="mask0_83_240" style="mask-type:alpha" maskUnits="userSpaceOnUse" x="0" y="4" width="49" height="24">
<path d="M48.0607 17.0607C48.6464 16.4749 48.6464 15.5251 48.0607 14.9393L38.5147 5.3934C37.9289 4.80761 36.9792 4.80761 36.3934 5.3934C35.8076 5.97919 35.8076 6.92893 36.3934 7.51472L44.8787 16L36.3934 24.4853C35.8076 25.0711 35.8076 26.0208 36.3934 26.6066C36.9792 27.1924 37.9289 27.1924 38.5147 26.6066L48.0607 17.0607ZM0 17.5H47V14.5H0V17.5Z" fill="white"/>
</mask>
<g mask="url(#mask0_83_240)">
<rect x="-3" y="3" width="30" height="23" fill="#3B3B3B"/>
</g>
</svg>
