<svg width="42" height="23" viewBox="0 0 42 23" fill="none" xmlns="http://www.w3.org/2000/svg">
<circle cx="30.7758" cy="11.2241" r="11.2241" fill="#2186FA"/>
<path d="M34.7416 12.2935C35.1321 11.903 35.1321 11.2698 34.7416 10.8793L28.3776 4.51536C27.9871 4.12483 27.3539 4.12483 26.9634 4.51536C26.5729 4.90588 26.5729 5.53905 26.9634 5.92957L32.6203 11.5864L26.9634 17.2433C26.5729 17.6338 26.5729 18.267 26.9634 18.6575C27.3539 19.048 27.9871 19.048 28.3776 18.6575L34.7416 12.2935ZM0 12.5864H34.0345V10.5864H0V12.5864Z" fill="white"/>
<mask id="mask0_84_359" style="mask-type:alpha" maskUnits="userSpaceOnUse" x="0" y="4" width="36" height="15">
<path d="M34.7416 12.2935C35.1321 11.903 35.1321 11.2698 34.7416 10.8793L28.3776 4.51536C27.9871 4.12483 27.3539 4.12483 26.9634 4.51536C26.5729 4.90588 26.5729 5.53905 26.9634 5.92957L32.6203 11.5864L26.9634 17.2433C26.5729 17.6338 26.5729 18.267 26.9634 18.6575C27.3539 19.048 27.9871 19.048 28.3776 18.6575L34.7416 12.2935ZM0 12.5864H34.0345V10.5864H0V12.5864Z" fill="white"/>
</mask>
<g mask="url(#mask0_84_359)">
<rect x="-2.17242" y="2.17236" width="21.7241" height="16.6552" fill="#3B3B3B"/>
</g>
</svg>
