<svg width="30" height="33" viewBox="0 0 30 33" fill="none" xmlns="http://www.w3.org/2000/svg">
<path d="M20.625 13.3017C20.625 13.0352 20.7238 12.7796 20.8996 12.5911C21.0754 12.4026 21.3139 12.2968 21.5625 12.2968H23.4375C23.6861 12.2968 23.9246 12.4026 24.1004 12.5911C24.2762 12.7796 24.375 13.0352 24.375 13.3017V15.3116C24.375 15.5781 24.2762 15.8337 24.1004 16.0222C23.9246 16.2107 23.6861 16.3165 23.4375 16.3165H21.5625C21.3139 16.3165 21.0754 16.2107 20.8996 16.0222C20.7238 15.8337 20.625 15.5781 20.625 15.3116V13.3017ZM15 13.3017C15 13.0352 15.0988 12.7796 15.2746 12.5911C15.4504 12.4026 15.6889 12.2968 15.9375 12.2968H17.8125C18.0611 12.2968 18.2996 12.4026 18.4754 12.5911C18.6512 12.7796 18.75 13.0352 18.75 13.3017V15.3116C18.75 15.5781 18.6512 15.8337 18.4754 16.0222C18.2996 16.2107 18.0611 16.3165 17.8125 16.3165H15.9375C15.6889 16.3165 15.4504 16.2107 15.2746 16.0222C15.0988 15.8337 15 15.5781 15 15.3116V13.3017ZM5.625 19.3314C5.625 19.0648 5.72377 18.8092 5.89959 18.6208C6.0754 18.4323 6.31386 18.3264 6.5625 18.3264H8.4375C8.68614 18.3264 8.9246 18.4323 9.10041 18.6208C9.27623 18.8092 9.375 19.0648 9.375 19.3314V21.3413C9.375 21.6078 9.27623 21.8634 9.10041 22.0519C8.9246 22.2403 8.68614 22.3462 8.4375 22.3462H6.5625C6.31386 22.3462 6.0754 22.2403 5.89959 22.0519C5.72377 21.8634 5.625 21.6078 5.625 21.3413V19.3314ZM11.25 19.3314C11.25 19.0648 11.3488 18.8092 11.5246 18.6208C11.7004 18.4323 11.9389 18.3264 12.1875 18.3264H14.0625C14.3111 18.3264 14.5496 18.4323 14.7254 18.6208C14.9012 18.8092 15 19.0648 15 19.3314V21.3413C15 21.6078 14.9012 21.8634 14.7254 22.0519C14.5496 22.2403 14.3111 22.3462 14.0625 22.3462H12.1875C11.9389 22.3462 11.7004 22.2403 11.5246 22.0519C11.3488 21.8634 11.25 21.6078 11.25 21.3413V19.3314Z" fill="#2186FA"/>
<path d="M6.5625 0.237396C6.81114 0.237396 7.0496 0.343274 7.22541 0.531738C7.40123 0.720202 7.5 0.975814 7.5 1.24234V2.24729H22.5V1.24234C22.5 0.975814 22.5988 0.720202 22.7746 0.531738C22.9504 0.343274 23.1889 0.237396 23.4375 0.237396C23.6861 0.237396 23.9246 0.343274 24.1004 0.531738C24.2762 0.720202 24.375 0.975814 24.375 1.24234V2.24729H26.25C27.2446 2.24729 28.1984 2.6708 28.9016 3.42466C29.6049 4.17851 30 5.20096 30 6.26707V28.3759C30 29.442 29.6049 30.4644 28.9016 31.2183C28.1984 31.9722 27.2446 32.3957 26.25 32.3957H3.75C2.75544 32.3957 1.80161 31.9722 1.09835 31.2183C0.395088 30.4644 0 29.442 0 28.3759V6.26707C0 5.20096 0.395088 4.17851 1.09835 3.42466C1.80161 2.6708 2.75544 2.24729 3.75 2.24729H5.625V1.24234C5.625 0.975814 5.72377 0.720202 5.89959 0.531738C6.0754 0.343274 6.31386 0.237396 6.5625 0.237396V0.237396ZM1.875 8.27696V28.3759C1.875 28.9089 2.07254 29.4202 2.42417 29.7971C2.77581 30.174 3.25272 30.3858 3.75 30.3858H26.25C26.7473 30.3858 27.2242 30.174 27.5758 29.7971C27.9275 29.4202 28.125 28.9089 28.125 28.3759V8.27696H1.875Z" fill="#2186FA"/>
</svg>
