<svg width="19" height="18" viewBox="0 0 19 18" fill="none" xmlns="http://www.w3.org/2000/svg">
<path d="M0.799998 0.215855C0.359999 0.215855 0 0.601754 0 1.07341C0 1.54506 0.359999 1.93096 0.799998 1.93096H2.57519L4.67519 10.9353C4.85279 11.6985 5.49119 12.2216 6.22479 12.2216H15.4C16.1216 12.2216 16.7344 11.7088 16.9248 10.9618L19 2.78851H5.59999L5.99999 4.50362H16.9248L15.4 10.5065H6.22479L4.12479 1.50218C4.03827 1.13284 3.83861 0.805323 3.55778 0.572091C3.27696 0.338858 2.93124 0.213414 2.57599 0.215855H0.799998ZM14.4 12.2216C13.084 12.2216 12 13.3836 12 14.7942C12 16.2049 13.084 17.3669 14.4 17.3669C15.716 17.3669 16.8 16.2049 16.8 14.7942C16.8 13.3836 15.716 12.2216 14.4 12.2216ZM7.19999 12.2216C5.88399 12.2216 4.79999 13.3836 4.79999 14.7942C4.79999 16.2049 5.88399 17.3669 7.19999 17.3669C8.51598 17.3669 9.59998 16.2049 9.59998 14.7942C9.59998 13.3836 8.51598 12.2216 7.19999 12.2216ZM7.19999 13.9367C7.65038 13.9367 7.99998 14.3123 7.99998 14.7942C7.99998 15.277 7.64958 15.6518 7.19999 15.6518C6.74959 15.6518 6.39999 15.2762 6.39999 14.7942C6.39999 14.3114 6.75039 13.9367 7.19999 13.9367ZM14.4 13.9367C14.8504 13.9367 15.2 14.3123 15.2 14.7942C15.2 15.277 14.8496 15.6518 14.4 15.6518C13.9496 15.6518 13.6 15.2762 13.6 14.7942C13.6 14.3114 13.9504 13.9367 14.4 13.9367Z" fill="white"/>
</svg>
