<svg width="27" height="27" viewBox="0 0 27 27" fill="none" xmlns="http://www.w3.org/2000/svg">
<circle cx="13.605" cy="13.1397" r="11.5702" stroke="url(#paint0_linear_81_19)" stroke-width="3"/>
<path d="M15.6191 6.78137L15.1992 16.4982H12.5234L12.1035 6.78137H15.6191ZM12.0156 19.5255C12.0156 19.0568 12.1849 18.6661 12.5234 18.3536C12.862 18.0346 13.3014 17.8751 13.8418 17.8751C14.3822 17.8751 14.8184 18.0346 15.1504 18.3536C15.4889 18.6661 15.6582 19.0568 15.6582 19.5255C15.6582 19.9943 15.4889 20.3881 15.1504 20.7072C14.8184 21.0197 14.3822 21.1759 13.8418 21.1759C13.3014 21.1759 12.862 21.0197 12.5234 20.7072C12.1849 20.3881 12.0156 19.9943 12.0156 19.5255Z" fill="#4F9FFC"/>
<defs>
<linearGradient id="paint0_linear_81_19" x1="13.605" y1="0.0695801" x2="12.9289" y2="36.1252" gradientUnits="userSpaceOnUse">
<stop stop-color="#2186FA"/>
<stop offset="1" stop-color="#ADD3FF"/>
</linearGradient>
</defs>
</svg>
