<svg width="27" height="27" viewBox="0 0 27 27" fill="none" xmlns="http://www.w3.org/2000/svg">
<circle cx="13.6252" cy="13.7933" r="11.5702" stroke="white" stroke-width="3"/>
<path d="M15.6191 7.78125L15.1992 17.498H12.5234L12.1035 7.78125H15.6191ZM12.0156 20.5254C12.0156 20.0566 12.1849 19.666 12.5234 19.3535C12.862 19.0345 13.3014 18.875 13.8418 18.875C14.3822 18.875 14.8184 19.0345 15.1504 19.3535C15.4889 19.666 15.6582 20.0566 15.6582 20.5254C15.6582 20.9941 15.4889 21.388 15.1504 21.707C14.8184 22.0195 14.3822 22.1758 13.8418 22.1758C13.3014 22.1758 12.862 22.0195 12.5234 21.707C12.1849 21.388 12.0156 20.9941 12.0156 20.5254Z" fill="white"/>
</svg>
