<svg width="40" height="42" viewBox="0 0 40 42" fill="none" xmlns="http://www.w3.org/2000/svg">
<path fill-rule="evenodd" clip-rule="evenodd" d="M30.9267 9.69793C30.9267 13.5435 29.9711 18.559 28.5011 17.7979C27.9 19.7609 26.638 21.4554 24.9295 22.5936C23.2209 23.7318 21.171 24.2436 19.128 24.042C17.0849 23.8405 15.1746 22.9381 13.7213 21.4879C12.2681 20.0378 11.3615 18.1294 11.1556 16.0868C9.69667 13.5346 7.78334 8.42015 12.7022 4.43348C12.7911 4.40459 12.8444 4.16459 12.9244 3.81126C13.2289 2.47459 13.9033 -0.49652 18.1578 0.071258C21.4389 0.507925 30.9267 2.20237 30.9267 9.69904V9.69793ZM26.6978 12.1224C26.6978 12.1224 26.1956 13.5913 26.6667 15.2279C26.6605 16.973 25.9704 18.6461 24.7444 19.8881C23.5184 21.13 21.8544 21.8417 20.1095 21.8703C18.3646 21.899 16.6781 21.2423 15.412 20.0413C14.1459 18.8403 13.4012 17.1908 13.3378 15.4468C13.4989 14.8357 13.4989 13.8013 13.4978 12.6513C13.4967 10.5768 13.4944 8.12903 14.4444 7.13126C21.0989 11.5635 26.6978 12.1224 26.6978 12.1224Z" fill="#2186FA"/>
<path d="M7.77778 34.3535C7.77778 33.1513 8.41444 32.0979 9.37 31.5113C9.33361 31.3729 9.29953 31.234 9.26778 31.0946C9.09917 30.3355 8.96753 29.5687 8.87333 28.7968C8.77786 28.0573 8.72038 27.3133 8.70111 26.5679C4.01111 28.409 0 31.6179 0 34.9868V41.0201H40V34.9868C40 31.7601 36.3222 28.6813 31.8911 26.809V26.8401C31.9111 27.5179 31.8733 28.2957 31.8 29.0435C31.7333 29.7368 31.6344 30.4279 31.5156 31.0201H32.2222C32.4285 31.0203 32.6307 31.0778 32.8061 31.1863C32.9816 31.2948 33.1233 31.4501 33.2156 31.6346L34.3267 33.8568C34.4044 34.0113 34.4444 34.1813 34.4444 34.3535V36.5757C34.4444 36.8704 34.3274 37.153 34.119 37.3614C33.9106 37.5697 33.628 37.6868 33.3333 37.6868H31.1111V35.4646H32.2222V34.6157L31.5356 33.2424H28.4644L27.7778 34.6157V35.4646H28.8889V37.6868H26.6667C26.372 37.6868 26.0894 37.5697 25.881 37.3614C25.6726 37.153 25.5556 36.8704 25.5556 36.5757V34.3535C25.5556 34.1813 25.5956 34.0113 25.6733 33.8568L26.7844 31.6346C26.8767 31.4501 27.0184 31.2948 27.1939 31.1863C27.3693 31.0778 27.5715 31.0203 27.7778 31.0201H29.2389C29.2633 30.9246 29.2878 30.819 29.3122 30.7024C29.4233 30.179 29.5222 29.5157 29.5889 28.8301C29.6556 28.1435 29.6867 27.4624 29.67 26.9024C29.6658 26.6704 29.6477 26.4388 29.6156 26.209C29.5911 26.0513 29.5667 25.979 29.5622 25.9635C29.5611 25.9601 29.56 25.959 29.5622 25.9613L29.5656 25.9601C28.976 25.777 28.3796 25.6165 27.7778 25.479C27.2189 25.3513 26.6411 26.1201 26.3889 26.6013H13.3333C13.3009 26.5393 13.269 26.4771 13.2378 26.4146C13.0022 25.9457 12.7122 25.3668 12.2222 25.479C11.7944 25.5757 11.3667 25.6868 10.9389 25.809C10.9251 26.0039 10.9192 26.1992 10.9211 26.3946C10.9256 27.009 10.9844 27.7613 11.0789 28.5213C11.1733 29.279 11.3011 30.0168 11.4344 30.599C11.4722 30.7668 11.51 30.9179 11.5456 31.0479C12.1808 31.1314 12.7785 31.3962 13.2671 31.8106C13.7558 32.2251 14.1146 32.7715 14.3007 33.3846C14.4868 33.9977 14.4923 34.6514 14.3165 35.2675C14.1407 35.8836 13.791 36.436 13.3094 36.8585C12.8278 37.2811 12.2346 37.5558 11.6009 37.65C10.9671 37.7441 10.3197 37.6536 9.73602 37.3893C9.15237 37.125 8.65727 36.6981 8.30997 36.1597C7.96267 35.6213 7.7779 34.9942 7.77778 34.3535Z" fill="#2186FA"/>
<path d="M12.2222 34.3535C12.2222 34.9913 11.7089 35.4813 11.1111 35.4813C10.5133 35.4813 10 34.9924 10 34.3535C10 33.7157 10.5133 33.2257 11.1111 33.2257C11.7089 33.2257 12.2222 33.7146 12.2222 34.3535Z" fill="#2186FA"/>
</svg>
