<svg width="24" height="18" viewBox="0 0 24 18" fill="none" xmlns="http://www.w3.org/2000/svg">
<path d="M15.2727 8.71941C15.2727 9.75322 14.8896 10.7447 14.2077 11.4757C13.5257 12.2067 12.6008 12.6174 11.6364 12.6174C10.6719 12.6174 9.74702 12.2067 9.06507 11.4757C8.38312 10.7447 8 9.75322 8 8.71941C8 7.68561 8.38312 6.69414 9.06507 5.96313C9.74702 5.23212 10.6719 4.82144 11.6364 4.82144C12.6008 4.82144 13.5257 5.23212 14.2077 5.96313C14.8896 6.69414 15.2727 7.68561 15.2727 8.71941Z" fill="#2186FA"/>
<path d="M0 8.7194C0 8.7194 4.36364 0.14386 11.6364 0.14386C18.9091 0.14386 23.2727 8.7194 23.2727 8.7194C23.2727 8.7194 18.9091 17.2949 11.6364 17.2949C4.36364 17.2949 0 8.7194 0 8.7194ZM11.6364 14.1766C12.9866 14.1766 14.2814 13.6016 15.2362 12.5782C16.1909 11.5548 16.7273 10.1667 16.7273 8.7194C16.7273 7.27207 16.1909 5.88402 15.2362 4.8606C14.2814 3.83719 12.9866 3.26224 11.6364 3.26224C10.2862 3.26224 8.99128 3.83719 8.03655 4.8606C7.08182 5.88402 6.54545 7.27207 6.54545 8.7194C6.54545 10.1667 7.08182 11.5548 8.03655 12.5782C8.99128 13.6016 10.2862 14.1766 11.6364 14.1766Z" fill="#2186FA"/>
</svg>
