<svg width="33" height="32" viewBox="0 0 33 32" fill="none" xmlns="http://www.w3.org/2000/svg">
<path d="M1.00768 0.882024L1.00773 0.881987C1.10034 0.805088 1.20147 0.739465 1.32842 0.698321C1.4511 0.658558 1.57476 0.649313 1.70006 0.650038L1.00768 0.882024ZM1.00768 0.882024C0.7622 1.08593 0.635251 1.37375 0.651358 1.67061M1.00768 0.882024L0.651358 1.67061M8.12327 24.076L8.12329 24.076C8.19815 24.0378 8.25467 24.0053 8.29564 23.9791C8.29132 23.9516 8.28636 23.9205 8.28076 23.8857C8.25611 23.7327 8.21979 23.5139 8.17337 23.2382C8.08055 22.687 7.94776 21.9109 7.78803 20.9844C7.46859 19.1316 7.04166 16.6787 6.61191 14.2237C6.18217 11.7687 5.74965 9.31182 5.41903 7.45109C5.25371 6.52066 5.11393 5.73962 5.01273 5.18248C4.96211 4.90381 4.92126 4.68176 4.89174 4.52526C4.87695 4.44687 4.86519 4.38588 4.85655 4.3428C4.84884 4.30437 4.84561 4.29076 4.84583 4.29071C4.84592 4.29068 4.84662 4.29307 4.84786 4.29701C4.68952 3.79127 4.23423 3.29662 3.73266 3.09082C3.73266 3.09082 3.73266 3.09082 3.73266 3.09082C3.73266 3.09082 3.72995 3.08976 3.72364 3.08762C3.71667 3.08526 3.70723 3.08224 3.69501 3.07855C3.67047 3.07114 3.63848 3.06217 3.59914 3.0518C3.52055 3.03107 3.41882 3.00634 3.30038 2.97922C3.06379 2.92503 2.7673 2.86283 2.46906 2.80596L8.12327 24.076ZM8.12327 24.076C6.82341 24.7394 6.01885 26.05 6.01679 27.5083C6.01526 28.5887 6.37097 29.4283 7.1512 30.1996C8.59805 31.6299 10.7912 31.7378 12.3793 30.4597C13.8142 29.3048 14.2047 27.217 13.3001 25.6474L8.12327 24.076ZM26.2583 31.1855L26.2583 31.1855C25.9325 31.2963 25.5185 31.3471 25.1179 31.3492C24.7163 31.3513 24.296 31.3045 23.9555 31.1994C23.9555 31.1994 23.9554 31.1993 23.9554 31.1993L24.0587 30.8649L26.2583 31.1855ZM26.2583 31.1855C27.4967 30.7642 28.3866 29.8753 28.8127 28.6351C28.9113 28.348 28.9504 27.9081 28.9504 27.5064C28.9504 27.1048 28.9113 26.6649 28.8127 26.3777C28.5993 25.7568 28.2893 25.2512 27.8446 24.8071L27.8446 24.8071M26.2583 31.1855L27.8446 24.8071M27.8446 24.8071C27.3769 24.3401 26.9172 24.056 26.2626 23.8238L26.2626 23.8238M27.8446 24.8071L26.2626 23.8238M26.2626 23.8238L25.8694 23.6843L25.8133 23.6644M26.2626 23.8238L25.8133 23.6644M25.8133 23.6644L25.7537 23.6642M25.8133 23.6644L25.7537 23.6642M25.7537 23.6642L17.8903 23.6341L10.3199 23.6052L10.0261 21.9237C9.93153 21.3827 9.84525 20.876 9.78242 20.4957C9.7562 20.337 9.73415 20.2009 9.71733 20.0937M25.7537 23.6642L9.71733 20.0937M9.71733 20.0937L17.7113 20.0959L26.0928 20.0982L26.1508 20.0982L26.2056 20.0796L26.7034 19.9103L26.7034 19.9103C27.6834 19.5768 28.4763 18.9134 28.9455 18.0233C28.9959 17.9277 29.0679 17.741 29.1569 17.4925C29.2496 17.2339 29.3693 16.8829 29.5164 16.4393C29.8107 15.5518 30.2165 14.2867 30.7369 12.6352C31.1631 11.2826 31.5507 10.0403 31.8318 9.12827C31.9723 8.67237 32.0864 8.29833 32.1654 8.03409C32.2049 7.90218 32.236 7.7964 32.2574 7.72106C32.2681 7.68369 32.2769 7.6518 32.2832 7.62717C32.2863 7.61516 32.2896 7.60211 32.2923 7.58977C32.2936 7.58374 32.2954 7.57504 32.2971 7.56516L32.2972 7.5646C32.2981 7.5589 32.3024 7.53373 32.3024 7.50285C32.3024 7.33542 32.2451 7.17414 32.1707 7.04427C32.0954 6.91255 31.9865 6.78488 31.8508 6.69381L31.8507 6.69378C31.7748 6.64288 31.6942 6.62036 31.6163 6.6066C31.54 6.59311 31.4396 6.58376 31.3042 6.57615C31.0305 6.56077 30.5635 6.55013 29.7482 6.54217C28.1139 6.52622 25.0513 6.5209 19.2655 6.51349C15.9015 6.5092 12.8435 6.50049 10.6267 6.48994C9.51822 6.48466 8.62046 6.47892 8.00005 6.47303C7.7189 6.47037 7.49541 6.46768 7.33533 6.465C7.32652 6.41198 7.31661 6.35341 7.3058 6.2905C7.26267 6.0394 7.20448 5.71408 7.14394 5.38376C7.02457 4.73241 6.8911 4.03407 6.84767 3.86609M9.71733 20.0937L1.70007 0.650038C1.82707 0.650772 2.03843 0.679089 2.26492 0.715743C2.50103 0.753953 2.7816 0.806063 3.06222 0.862935C3.61076 0.974101 4.20065 1.11161 4.44733 1.2047L4.44733 1.2047C5.58952 1.63575 6.54428 2.69243 6.84767 3.86609M6.84767 3.86609L6.50881 3.9537L6.84767 3.86609ZM26.8932 27.8097L26.8932 27.8096C27.0655 26.9456 26.5044 26.0259 25.6231 25.766L25.7221 25.4303L25.6231 25.766C24.463 25.4238 23.3165 26.2175 23.2424 27.3762C23.1897 28.1996 23.6579 28.9194 24.4436 29.2119C24.5671 29.2578 24.6486 29.2794 24.7399 29.2904L26.8932 27.8097ZM26.8932 27.8097C26.8122 28.2162 26.6902 28.4518 26.4019 28.756M26.8932 27.8097L26.4019 28.756M26.4019 28.756C26.0651 29.1114 25.7172 29.2688 25.1673 29.2939L26.4019 28.756ZM12.05 27.9055L11.7074 27.8338C11.8814 27.002 11.3825 26.107 10.5813 25.8162C9.83525 25.5455 9.09743 25.7092 8.56477 26.2489C7.48541 27.3427 8.21649 29.2202 9.75958 29.2974C10.3884 29.3289 10.8618 29.1409 11.2414 28.7345L12.05 27.9055ZM12.05 27.9055L11.7074 27.8338C11.628 28.214 11.5038 28.4534 11.2414 28.7344L12.05 27.9055ZM0.651358 1.67061C0.667373 1.96576 0.822678 2.23879 1.07899 2.42551L0.651358 1.67061ZM26.54 17.7406L26.5399 17.7406C26.4842 17.7771 26.4424 17.8058 26.4085 17.8292C26.3207 17.8896 26.2856 17.9138 26.1991 17.9412C26.0682 17.9828 25.8347 18.0186 25.2885 18.041C24.3293 18.0805 22.5238 18.0769 18.8879 18.0698C18.4249 18.0688 17.9321 18.0679 17.4076 18.0669L9.35801 18.0523L8.54718 13.416C8.15895 11.1962 7.81771 9.25122 7.69748 8.57245H18.7978C22.7369 8.57245 25.6165 8.57731 27.5111 8.58744C28.4586 8.59251 29.1585 8.59888 29.6211 8.6066C29.7086 8.60806 29.7872 8.60956 29.8572 8.61111C29.7842 8.84851 29.6829 9.17408 29.5621 9.56009C29.3078 10.3726 28.9677 11.4508 28.6245 12.5336C28.2814 13.6164 27.9353 14.7033 27.6691 15.5331C27.536 15.9481 27.423 16.2983 27.3404 16.5514C27.2991 16.6781 27.2656 16.7797 27.241 16.8528C27.2227 16.9074 27.212 16.9379 27.2073 16.9512C27.2049 16.9581 27.2041 16.9604 27.2047 16.9591C27.088 17.2281 26.7967 17.5724 26.54 17.7406ZM17.1864 14.3491L17.1864 14.3492C17.1986 14.362 17.2058 14.3699 17.2097 14.3744C17.2122 14.3838 17.2172 14.4058 17.2221 14.4488C17.2405 14.6081 17.2458 14.904 17.255 15.5457L17.2664 16.3319C17.2731 16.7965 17.6516 17.1696 18.1163 17.1696H18.1645H18.2056C18.675 17.1696 19.0556 16.7891 19.0556 16.3196V15.5985C19.0556 15.5258 19.0555 15.4568 19.0554 15.3913C19.0548 15.0406 19.0545 14.7903 19.0711 14.599C19.0912 14.3667 19.1316 14.3155 19.1438 14.3032C19.1565 14.2904 19.2088 14.2492 19.4432 14.2256C19.6358 14.2062 19.8882 14.2028 20.2414 14.1981C20.3073 14.1972 20.3766 14.1962 20.4498 14.1951L21.2426 14.1833C21.7071 14.1764 22.08 13.7979 22.08 13.3334V13.3279V13.3221C22.08 12.8578 21.7074 12.4794 21.2432 12.4722L20.4501 12.4598C19.8862 12.451 19.5738 12.4425 19.3851 12.4258C19.2918 12.4175 19.2441 12.4084 19.2186 12.4014C19.2013 12.3967 19.1971 12.3938 19.1935 12.3913L19.1928 12.3909C19.1692 12.375 19.1404 12.3514 19.1159 12.3273C19.1149 12.3186 19.1139 12.3089 19.1129 12.2982C19.106 12.2275 19.0986 12.1275 19.0914 12.004C19.0771 11.7579 19.064 11.4298 19.0556 11.0799L19.0368 10.2844C19.0259 9.82296 18.6486 9.45457 18.187 9.45457H18.1645H18.1166C17.6517 9.45457 17.2731 9.82805 17.2667 10.2929L17.2559 11.0761C17.2462 11.7343 17.2407 12.0387 17.2222 12.2023C17.2171 12.2474 17.212 12.2703 17.2094 12.28C17.2054 12.2845 17.1983 12.2924 17.1864 12.3049L17.1864 12.3049C17.1528 12.3401 17.128 12.3583 17.0987 12.3727C17.0658 12.3888 17.0112 12.4079 16.9096 12.424C16.6962 12.458 16.3523 12.469 15.7264 12.4692L15.0921 12.4694C14.6228 12.4695 14.2424 12.8501 14.2424 13.3194V13.327V13.3347C14.2424 13.804 14.6228 14.1845 15.0921 14.1847L15.7264 14.1849C16.3523 14.185 16.6962 14.196 16.9096 14.23C17.0112 14.2462 17.0658 14.2652 17.0987 14.2814C17.128 14.2958 17.1528 14.314 17.1864 14.3491ZM1.07902 2.42553C1.15085 2.47785 1.24452 2.51234 1.31045 2.53474C1.38967 2.56164 1.4873 2.58951 1.59856 2.61797C1.82186 2.67507 2.11808 2.73907 2.46904 2.80596L1.07902 2.42553Z" fill="#2186FA" stroke="#2186FA" stroke-width="0.7"/>
</svg>
