<svg width="37" height="32" viewBox="0 0 37 32" fill="none" xmlns="http://www.w3.org/2000/svg">
<path d="M31.8724 29.4065L31.8103 29.1644C32.4205 29.0079 32.7833 28.8017 33.1474 28.4196C33.5006 28.0491 33.7273 27.5909 33.8567 26.9477L34.1018 26.9971L33.8567 26.9477C33.8996 26.7347 33.9269 26.3991 33.9394 25.1535C33.9518 23.9165 33.9499 21.8019 33.9414 18.05L33.9223 9.6851L33.7801 9.2847C33.6028 8.7855 33.3649 8.40467 33.0497 8.1095C32.7339 7.81389 32.3278 7.59229 31.7965 7.43062C31.7293 7.41021 31.6379 7.38939 31.3354 7.37264C31.0319 7.35583 30.5322 7.34377 29.6562 7.33499C27.906 7.31744 24.6721 7.3131 18.5452 7.30788C14.9922 7.30486 11.7243 7.30791 9.32146 7.31527C8.12001 7.31896 7.13515 7.32372 6.4392 7.32933C6.09113 7.33214 5.81587 7.33516 5.62209 7.33835C5.52509 7.33995 5.44934 7.34158 5.39541 7.34323C5.36105 7.34427 5.34086 7.34523 5.33073 7.34572C5.32229 7.34612 5.32086 7.34619 5.32406 7.34569C4.63842 7.45042 4.12378 7.65163 3.73079 7.9595C3.3394 8.26612 3.04931 8.69372 2.83798 9.28514L2.60256 9.20102L2.83798 9.28515L2.69497 9.68535L2.67593 18.05C2.6674 21.7877 2.66562 23.9027 2.67791 25.1428C2.69029 26.3919 2.71737 26.7333 2.75963 26.9433L31.8724 29.4065ZM31.8724 29.4065L31.8103 29.1644C31.5852 29.2221 31.4312 29.2571 29.7 29.2743M31.8724 29.4065L29.7 29.2743M29.7 29.2743C27.9786 29.2914 24.7211 29.2917 18.3147 29.2912M29.7 29.2743L18.3147 29.2912M18.3147 29.2912C12.6607 29.2908 9.39052 29.2872 7.48746 29.2727M18.3147 29.2912L7.48746 29.2727M7.48746 29.2727C6.53554 29.2655 5.92807 29.2556 5.53615 29.2421M7.48746 29.2727L5.53615 29.2421M5.53615 29.2421C5.13569 29.2283 4.9804 29.211 4.91591 29.1958M5.53615 29.2421L4.91591 29.1958M4.91591 29.1958C4.30781 29.0521 3.83398 28.7918 3.48179 28.4242M4.91591 29.1958L3.48179 28.4242M3.48179 28.4242C3.12942 28.0564 2.88519 27.567 2.75963 26.9433L3.48179 28.4242ZM13.1468 0.824932L13.1468 0.824939C12.8529 0.913637 12.5585 1.10694 12.3102 1.34108C12.0607 1.57643 11.8413 1.8684 11.7078 2.17319C11.5615 2.50728 11.5434 2.78991 11.5133 4.08802L11.5133 4.08804L11.4841 5.34958L8.33615 5.37546C6.47045 5.39082 5.51206 5.39897 4.90079 5.46154C4.26354 5.52677 3.98371 5.654 3.48599 5.88447L3.48598 5.88448C2.03949 6.55433 1.12599 7.78108 0.845322 9.4111L0.845318 9.41113C0.795548 9.70035 0.770472 10.1442 0.758576 11.4263C0.746611 12.7159 0.748242 14.871 0.756866 18.5988L0.776552 27.1357L0.776637 27.173L0.787561 27.2085L0.943352 27.716C1.20795 28.5779 1.56569 29.1896 2.16306 29.7924C2.77752 30.4124 3.50471 30.8159 4.47451 31.0885L5.0157 31.2407L5.04889 31.25H5.08336H18.3086H31.5339H31.5684L31.6016 31.2407L32.1428 31.0885C33.9652 30.5761 35.1381 29.4616 35.6739 27.716L35.8297 27.2085L35.8406 27.173L35.8407 27.1358L35.8608 18.6264C35.8676 15.757 35.8668 13.5902 35.8583 12.1005C35.8541 11.3557 35.8479 10.7793 35.8397 10.3686C35.8317 9.96816 35.8218 9.70475 35.8067 9.6045C35.628 8.41932 35.1352 7.43583 34.3696 6.71609C33.6043 5.99666 32.5816 5.55477 31.3664 5.4264L31.3663 5.4264C31.0102 5.38881 29.3994 5.35924 27.7964 5.35857L25.1201 5.35751L25.1184 4.47124C25.1167 3.51474 25.0895 2.89172 24.9797 2.43658C24.8642 1.95744 24.658 1.66594 24.3335 1.36619C24.3064 1.34114 24.2795 1.31547 24.2525 1.28964C24.1421 1.18427 24.029 1.07628 23.8863 0.997116C23.6981 0.892711 23.4681 0.837911 23.1132 0.804678C22.489 0.746217 21.3743 0.747947 19.1842 0.751346C18.9129 0.751767 18.6251 0.752214 18.3196 0.752575C16.9671 0.754169 15.7164 0.76192 14.7908 0.773121C14.3281 0.77872 13.9458 0.78519 13.6724 0.792208C13.5359 0.795712 13.4252 0.799385 13.3447 0.803221C13.3046 0.805128 13.2702 0.807162 13.243 0.809393L13.2406 0.809583C13.2236 0.810954 13.182 0.814311 13.1468 0.824932ZM22.9308 2.65711C22.952 2.65905 22.9673 2.66083 22.9777 2.66229C23.0343 2.68946 23.0525 2.70482 23.0632 2.71722C23.074 2.72969 23.0958 2.76135 23.1162 2.85783C23.1605 3.06626 23.1747 3.44309 23.1883 4.20497L23.2091 5.35741H18.3493H13.485V4.17831V2.85259L13.6097 2.72759L13.7342 2.60282H18.2664C19.8421 2.60282 21.0123 2.60864 21.8015 2.62059C22.1965 2.62657 22.4941 2.63407 22.6989 2.64303C22.8016 2.64753 22.8782 2.65228 22.9308 2.65711ZM22.9922 2.66474C22.9922 2.66476 22.9911 2.66455 22.9891 2.66407C22.9913 2.66448 22.9923 2.66472 22.9922 2.66474ZM20.4317 15.9562L20.2824 15.8066L20.2617 14.1464L20.252 13.3723C20.2435 12.688 19.6864 12.1378 19.0021 12.1378H18.2697H17.5498C16.8594 12.1378 16.2998 12.6975 16.2998 13.3878V14.1496V15.8162L16.1659 15.9666L16.1658 15.9666L16.042 16.1056L14.3879 16.1245L13.6119 16.1334C12.9271 16.1412 12.3762 16.6985 12.3762 17.3833V18.1204V18.8462C12.3762 19.5366 12.9358 20.0962 13.6262 20.0962H14.3361C15.2499 20.0962 15.7013 20.1012 15.9535 20.1412C16.0733 20.1602 16.1202 20.1835 16.1433 20.1996C16.1632 20.2135 16.1825 20.2332 16.2172 20.2845C16.2206 20.3067 16.2245 20.3391 16.2288 20.3826C16.2381 20.4776 16.2475 20.6118 16.2566 20.7779C16.2746 21.1093 16.2903 21.5585 16.2998 22.0547L16.3148 22.8368C16.3279 23.5176 16.8836 24.0628 17.5646 24.0628H18.3086H19.0527C19.7337 24.0628 20.2894 23.5176 20.3025 22.8368L20.3175 22.0547C20.327 21.5585 20.3427 21.1093 20.3607 20.7779C20.3697 20.6118 20.3792 20.4776 20.3885 20.3826C20.3928 20.3391 20.3967 20.3067 20.4001 20.2845C20.4348 20.2332 20.4541 20.2135 20.474 20.1996C20.4971 20.1835 20.5439 20.1602 20.6637 20.1412C20.916 20.1012 21.3674 20.0962 22.2812 20.0962H22.9911C23.6815 20.0962 24.2411 19.5366 24.2411 18.8462V18.1214V17.3846C24.2411 16.7001 23.6906 16.1429 23.0062 16.1347L22.2364 16.1254L20.5807 16.1056L20.4317 15.9562ZM20.3796 20.3159L20.3796 20.3159L20.3796 20.3159Z" fill="#2186FA" stroke="#2186FA" stroke-width="0.5"/>
</svg>
