<svg width="35" height="36" viewBox="0 0 35 36" fill="none" xmlns="http://www.w3.org/2000/svg">
<circle cx="17.5" cy="17.5" r="16.25" stroke="#2186FA" stroke-width="2.5"/>
<path d="M18.7304 20.167H10.5986V18.0293H18.6767C19.4 18.0293 19.9836 17.9183 20.4277 17.6963C20.8717 17.4671 21.1975 17.1484 21.4052 16.7402C21.6129 16.332 21.7167 15.8558 21.7167 15.3115C21.7167 14.8245 21.6129 14.3698 21.4052 13.9473C21.1975 13.5247 20.8752 13.181 20.4384 12.916C20.0015 12.6439 19.4322 12.5078 18.7304 12.5078H15.4862V26H12.79V10.3594H18.7304C19.9335 10.3594 20.9576 10.5706 21.8027 10.9932C22.6477 11.4157 23.2958 11.9993 23.747 12.7441C24.1982 13.4818 24.4237 14.3304 24.4237 15.29C24.4237 16.3141 24.1946 17.1914 23.7362 17.9219C23.2851 18.6452 22.6334 19.2002 21.7812 19.5869C20.9361 19.9736 19.9192 20.167 18.7304 20.167ZM18.9882 21.3164V23.4541H10.5986V21.3164H18.9882Z" fill="#2186FA"/>
</svg>
