<svg width="15" height="15" viewBox="0 0 15 15" fill="none" xmlns="http://www.w3.org/2000/svg">
<path d="M3.2144 7.50002L7.5 3.21442L11.7856 7.50002L7.5 11.7856L3.2144 7.50002Z" fill="#2186FA"/>
<path d="M14.673 6.71091L8.28962 0.326437C8.08021 0.117403 7.79642 0 7.50054 0C7.20465 0 6.92086 0.117403 6.71145 0.326437L0.326437 6.71091C0.117403 6.92032 0 7.20412 0 7.5C0 7.79588 0.117403 8.07968 0.326437 8.28909L6.71091 14.6736C6.92032 14.8826 7.20412 15 7.5 15C7.79588 15 8.07968 14.8826 8.28909 14.6736L14.6736 8.28909C14.8826 8.07968 15 7.79588 15 7.5C15 7.20412 14.8826 6.92032 14.6736 6.71091H14.673ZM7.5 13.9477L1.05285 7.5L7.5 1.05231L13.9477 7.5L7.5 13.9477Z" fill="#2186FA"/>
</svg>
