<svg width="30" height="33" viewBox="0 0 30 33" fill="none" xmlns="http://www.w3.org/2000/svg">
<path d="M15 0.237396C13.1639 0.237396 11.403 1.01926 10.1046 2.411C8.80632 3.80273 8.07692 5.69033 8.07692 7.65854C8.07692 11.7575 14.0988 21.9356 14.0988 27.4482H15.9012C15.9012 21.9541 21.9231 11.4235 21.9231 7.65854C21.9231 5.69033 21.1937 3.80273 19.8954 2.411C18.597 1.01926 16.8361 0.237396 15 0.237396V0.237396ZM15 3.94797C15.9181 3.94797 16.7985 4.3389 17.4477 5.03477C18.0968 5.73063 18.4615 6.67443 18.4615 7.65854C18.4615 8.64264 18.0968 9.58644 17.4477 10.2823C16.7985 10.9782 15.9181 11.3691 15 11.3691C14.0819 11.3691 13.2015 10.9782 12.5523 10.2823C11.9032 9.58644 11.5385 8.64264 11.5385 7.65854C11.5385 6.67443 11.9032 5.73063 12.5523 5.03477C13.2015 4.3389 14.0819 3.94797 15 3.94797ZM7.89692 21.6115C7.87226 21.6238 7.84802 21.637 7.82423 21.6511C5.69538 22.0518 3.89077 22.601 2.52462 23.3518C1.84038 23.7265 1.25077 24.1706 0.793846 24.7037C0.335769 25.238 0 25.9319 0 26.7135C0 27.8861 0.724615 28.8026 1.58654 29.4581C2.44846 30.1137 3.53654 30.6146 4.86808 31.0425C7.52769 31.8985 11.0827 32.3957 15 32.3957C18.9173 32.3957 22.4723 31.8985 25.1319 31.0425C26.4623 30.6146 27.5515 30.1149 28.4135 29.4581C29.2754 28.8026 30 27.8861 30 26.7135C30 25.9294 29.6654 25.1996 29.2062 24.6653C28.7469 24.131 28.1631 23.7265 27.4754 23.3505C26.1023 22.5998 24.2804 22.0506 22.1388 21.6499C21.9883 21.6186 21.8334 21.6198 21.6833 21.6534C21.5331 21.6871 21.3908 21.7524 21.2645 21.8457C21.1382 21.939 21.0305 22.0584 20.9478 22.1968C20.865 22.3353 20.8089 22.49 20.7826 22.652C20.7563 22.8139 20.7603 22.9799 20.7946 23.1402C20.8288 23.3004 20.8925 23.4518 20.9819 23.5853C21.0714 23.7189 21.1847 23.832 21.3154 23.9181C21.4461 24.0041 21.5915 24.0614 21.7431 24.0865C23.7312 24.4575 25.3835 24.9832 26.43 25.5546C26.9538 25.8391 27.3219 26.1446 27.5123 26.366C27.7027 26.5874 27.6923 26.6752 27.6923 26.7135C27.6923 26.7717 27.6185 27.0388 27.0796 27.4482C26.5408 27.8576 25.6223 28.3066 24.4465 28.6851C22.0962 29.4408 18.7292 29.922 15 29.922C11.2708 29.922 7.90385 29.4408 5.55231 28.6851C4.37769 28.3066 3.45923 27.8576 2.92154 27.4482C2.38154 27.0388 2.30769 26.7717 2.30769 26.7135C2.30769 26.6764 2.29962 26.5862 2.48769 26.366C2.67692 26.1458 3.04962 25.8391 3.57 25.5546C4.60846 24.9844 6.24462 24.4588 8.22115 24.0852C8.37491 24.0652 8.5234 24.0126 8.65795 23.9303C8.79249 23.8481 8.9104 23.7379 9.00477 23.6063C9.09915 23.4746 9.16809 23.3241 9.20758 23.1636C9.24707 23.0031 9.25631 22.8357 9.23476 22.6713C9.21321 22.5069 9.1613 22.3487 9.08208 22.2061C9.00285 22.0634 8.89788 21.9391 8.77332 21.8404C8.64876 21.7418 8.5071 21.6707 8.35662 21.6314C8.20615 21.5921 8.04987 21.5853 7.89692 21.6115Z" fill="#2186FA"/>
</svg>
