<svg width="36" height="34" viewBox="0 0 36 34" fill="none" xmlns="http://www.w3.org/2000/svg">
<path fill-rule="evenodd" clip-rule="evenodd" d="M3.31877 20.4003C6.07963 24.5709 10.7531 29.1744 18.0006 34C25.2481 29.1744 29.9216 24.5709 32.6824 20.4003H27.001C26.7763 20.4002 26.5568 20.3324 26.3707 20.2056C26.1846 20.0787 26.0405 19.8986 25.9569 19.6886L22.6785 11.4335L19.0829 24.1107C19.0186 24.3381 18.8854 24.5395 18.7018 24.6868C18.5182 24.8341 18.2935 24.9198 18.0592 24.9321C17.8248 24.9443 17.5925 24.8824 17.3948 24.755C17.1971 24.6277 17.0439 24.4412 16.9566 24.2218L13.2507 14.8879L9.93629 19.8971C9.83339 20.052 9.69413 20.179 9.53085 20.2668C9.36757 20.3546 9.18532 20.4004 9.00025 20.4003H3.31877ZM1.97772 18.1337C-5.45882 3.80861 9.92279 -4.53255 17.6046 2.59143C17.7396 2.7161 17.8724 2.8453 18.0006 2.97903C18.1276 2.84542 18.2597 2.71688 18.3966 2.5937C26.0784 -4.53255 41.46 3.80861 34.0212 18.1337H27.7592L23.5426 7.51227C23.4553 7.29283 23.3021 7.10638 23.1044 6.97902C22.9067 6.85166 22.6744 6.78977 22.44 6.80201C22.2056 6.81425 21.9809 6.90001 21.7974 7.04729C21.6138 7.19456 21.4805 7.39598 21.4162 7.62333L17.8229 20.3005L14.5445 12.0455C14.4681 11.854 14.3413 11.6872 14.1777 11.5629C14.0141 11.4387 13.82 11.3618 13.6162 11.3406C13.4124 11.3194 13.2068 11.3546 13.0214 11.4425C12.8361 11.5303 12.678 11.6675 12.5644 11.8392L8.39723 18.1337H1.97997H1.97772Z" fill="white"/>
</svg>
