<svg width="36" height="34" viewBox="0 0 36 34" fill="none" xmlns="http://www.w3.org/2000/svg">
<path d="M16.6112 2.94946C17.0912 1.68351 18.9076 1.68351 19.3891 2.94946L22.494 11.5501C22.6023 11.8302 22.793 12.071 23.041 12.2405C23.289 12.41 23.5825 12.5003 23.8829 12.4995H31.5131C32.923 12.4995 33.538 14.2545 32.4295 15.1139L26.9998 19.9992C26.7566 20.1862 26.5788 20.4454 26.492 20.7397C26.4053 21.0339 26.4139 21.3481 26.5168 21.6371L28.4997 30.0413C28.9827 31.3912 27.4198 32.5506 26.2378 31.7197L18.8626 27.0399C18.6101 26.8624 18.3089 26.7671 18.0002 26.7671C17.6915 26.7671 17.3903 26.8624 17.1377 27.0399L9.76255 31.7197C8.5821 32.5506 7.01767 31.3897 7.50065 30.0413L9.48356 21.6371C9.58642 21.3481 9.59509 21.0339 9.50832 20.7397C9.42155 20.4454 9.24381 20.1862 9.00058 19.9992L3.57082 15.1139C2.46087 14.2545 3.07884 12.4995 4.48578 12.4995H12.1159C12.4164 12.5005 12.71 12.4103 12.958 12.2408C13.206 12.0712 13.3967 11.8304 13.5049 11.5501L16.6097 2.94946H16.6112Z" stroke="url(#paint0_linear_12_104)" stroke-width="4" stroke-linecap="round" stroke-linejoin="round"/>
<defs>
<linearGradient id="paint0_linear_12_104" x1="18" y1="2" x2="18.1193" y2="40.1583" gradientUnits="userSpaceOnUse">
<stop stop-color="white"/>
<stop offset="1" stop-color="white"/>
</linearGradient>
</defs>
</svg>
