<svg width="35" height="27" viewBox="0 0 35 27" fill="none" xmlns="http://www.w3.org/2000/svg">
<path d="M15.3125 26.25C15.3125 26.25 13.125 26.25 13.125 24.0625C13.125 21.875 15.3125 15.3125 24.0625 15.3125C32.8125 15.3125 35 21.875 35 24.0625C35 26.25 32.8125 26.25 32.8125 26.25H15.3125ZM24.0625 13.125C25.803 13.125 27.4722 12.4336 28.7029 11.2029C29.9336 9.97218 30.625 8.30298 30.625 6.5625C30.625 4.82202 29.9336 3.15282 28.7029 1.92211C27.4722 0.691404 25.803 0 24.0625 0C22.322 0 20.6528 0.691404 19.4221 1.92211C18.1914 3.15282 17.5 4.82202 17.5 6.5625C17.5 8.30298 18.1914 9.97218 19.4221 11.2029C20.6528 12.4336 22.322 13.125 24.0625 13.125Z" fill="white"/>
<path fill-rule="evenodd" clip-rule="evenodd" d="M11.41 26.25C11.0857 25.5671 10.924 24.8183 10.9375 24.0625C10.9375 21.0984 12.425 18.0468 15.1725 15.925C13.8011 15.5024 12.3724 15.2958 10.9375 15.3125C2.1875 15.3125 0 21.875 0 24.0625C0 26.25 2.1875 26.25 2.1875 26.25H11.41Z" fill="white"/>
<path d="M9.84375 13.125C11.2942 13.125 12.6852 12.5488 13.7107 11.5232C14.7363 10.4977 15.3125 9.10665 15.3125 7.65625C15.3125 6.20585 14.7363 4.81485 13.7107 3.78926C12.6852 2.76367 11.2942 2.1875 9.84375 2.1875C8.39335 2.1875 7.00235 2.76367 5.97676 3.78926C4.95117 4.81485 4.375 6.20585 4.375 7.65625C4.375 9.10665 4.95117 10.4977 5.97676 11.5232C7.00235 12.5488 8.39335 13.125 9.84375 13.125Z" fill="white"/>
</svg>
