<svg width="25" height="28" viewBox="0 0 25 28" fill="none" xmlns="http://www.w3.org/2000/svg">
<path d="M23.4328 27.0359C10.1031 27.056 -0.0140478 16.082 1.46417e-05 1.91733C1.46417e-05 0.991105 0.700014 0.237396 1.56251 0.237396H5.68751C6.46095 0.237396 7.11876 0.847063 7.23282 1.66777C7.50486 3.63588 8.03895 5.55196 8.81876 7.35744L8.9797 7.72926C9.0878 7.97948 9.11106 8.26229 9.04545 8.52892C8.97985 8.79555 8.82949 9.02928 8.62032 9.18979C7.3422 10.1679 6.8547 12.136 7.85001 13.6702C9.10311 15.6019 10.6671 17.279 12.4688 18.6229C13.9016 19.6881 15.7375 19.1655 16.6484 17.7971C16.798 17.5722 17.0162 17.4105 17.2653 17.3398C17.5144 17.2692 17.7787 17.2941 18.0125 17.4102L18.3578 17.5811C20.0422 18.4185 21.8297 18.9914 23.6656 19.2828C24.4312 19.4051 25 20.1102 25 20.9409V25.361C25 25.5811 24.9595 25.7991 24.8809 26.0024C24.8023 26.2057 24.6871 26.3904 24.5418 26.546C24.3965 26.7015 24.2241 26.8249 24.0344 26.9089C23.8446 26.993 23.6413 27.0362 23.4359 27.0359H23.4328Z" fill="#2186FA"/>
</svg>
