<svg width="59" height="48" viewBox="0 0 59 48" fill="none" xmlns="http://www.w3.org/2000/svg">
<path d="M32.3719 11.12C32.3719 14.08 33.1762 16.64 34.825 18.72C37.3182 21.84 42.184 22.24 44.999 21.6C46.1652 28.2 40.5353 36.6 33.2566 40.2L38.8463 48C49.8246 42.8 60.6421 30.88 58.7922 15.8C57.6261 6.28 52.0766 0 44.2349 0C40.8168 0 37.9616 1 35.7097 3C33.4577 5 32.3719 7.72 32.3719 11.12ZM3.8147e-06 11.12C3.8147e-06 14.08 0.804276 16.64 2.45303 18.72C4.98649 21.84 9.81212 22.24 12.6271 21.6C13.7933 28.2 8.16336 36.6 0.884708 40.2L6.47439 48C17.4527 42.8 28.2299 30.88 26.3801 15.8C25.2139 6.28 19.7047 0 11.863 0C8.44485 0 5.5897 1 3.33774 3C1.08578 5 3.8147e-06 7.72 3.8147e-06 11.12Z" fill="#3C95FB"/>
</svg>
