<svg width="27" height="27" viewBox="0 0 27 27" fill="none" xmlns="http://www.w3.org/2000/svg">
<path d="M13.5543 8.04188e-05C6.14623 8.04188e-05 0.108543 6.00756 0.108543 13.3785C0.108543 15.741 0.732663 18.036 1.8995 20.061L0 27L7.12312 25.137C9.09045 26.2035 11.302 26.7705 13.5543 26.7705C20.9623 26.7705 27 20.763 27 13.392C27 9.81455 25.6025 6.45306 23.0653 3.92857C21.8214 2.67837 20.3398 1.68713 18.7068 1.01265C17.0739 0.338166 15.3223 -0.00604814 13.5543 8.04188e-05ZM13.5678 2.25457C16.5528 2.25457 19.3477 3.41557 21.4643 5.52156C22.5031 6.55479 23.3266 7.78189 23.8878 9.13248C24.4489 10.4831 24.7365 11.9306 24.7342 13.392C24.7342 19.521 19.7141 24.5025 13.5543 24.5025C11.5462 24.5025 9.57889 23.976 7.86935 22.95L7.46231 22.7205L3.22915 23.8275L4.35528 19.7235L4.08392 19.2915C2.96314 17.5212 2.37032 15.4708 2.37437 13.3785C2.38794 7.24956 7.39447 2.25457 13.5678 2.25457ZM8.79196 7.19556C8.57487 7.19556 8.20854 7.27656 7.89648 7.61406C7.59799 7.95156 6.71608 8.77505 6.71608 10.4085C6.71608 12.0555 7.92362 13.635 8.07286 13.8645C8.26281 14.094 10.4608 17.469 13.8392 18.9C14.6397 19.2645 15.2638 19.467 15.7523 19.6155C16.5528 19.872 17.2854 19.8315 17.8688 19.7505C18.5201 19.656 19.8497 18.9405 20.1347 18.1575C20.4196 17.3745 20.4196 16.713 20.3382 16.5645C20.2432 16.4295 20.0261 16.3485 19.6869 16.2C19.3477 16.011 17.6925 15.201 17.394 15.093C17.0819 14.985 16.892 14.931 16.6342 15.255C16.4171 15.5925 15.7658 16.3485 15.5759 16.5645C15.3724 16.794 15.1824 16.821 14.8568 16.659C14.504 16.4835 13.4186 16.1325 12.1432 14.9985C11.1392 14.1075 10.4744 13.014 10.2709 12.6765C10.108 12.3525 10.2573 12.15 10.4201 12.0015C10.5693 11.853 10.7864 11.61 10.9221 11.4075C11.0985 11.2185 11.1528 11.07 11.2613 10.854C11.3698 10.6245 11.3156 10.4355 11.2342 10.2735C11.1528 10.125 10.4744 8.45106 10.1894 7.78956C9.91809 7.14156 9.64673 7.22256 9.42965 7.20906C9.2397 7.20906 9.02261 7.19556 8.79196 7.19556Z" fill="#2186FA"/>
</svg>
