<svg width="25" height="27" viewBox="0 0 25 27" fill="none" xmlns="http://www.w3.org/2000/svg">
<path d="M12.5502 8.02201e-05C5.69095 8.02201e-05 0.100503 5.99272 0.100503 13.3455C0.100503 15.7021 0.678392 17.9915 1.75879 20.0115L0 26.9333L6.59548 25.0749C8.41708 26.1388 10.4648 26.7044 12.5502 26.7044C19.4095 26.7044 25 20.7117 25 13.359C25 9.79031 23.706 6.43712 21.3568 3.91886C20.205 2.67176 18.8331 1.68296 17.3212 1.01014C15.8092 0.33733 14.1873 -0.0060332 12.5502 8.02201e-05ZM12.5628 2.249C15.3266 2.249 17.9146 3.40713 19.8744 5.50793C20.8362 6.5386 21.5987 7.76266 22.1183 9.10992C22.6378 10.4572 22.9042 11.9011 22.902 13.359C22.902 19.4728 18.2538 24.442 12.5502 24.442C10.691 24.442 8.86935 23.9168 7.28643 22.8933L6.90955 22.6644L2.98995 23.7687L4.03266 19.6748L3.78141 19.2439C2.74364 17.478 2.19474 15.4326 2.19849 13.3455C2.21106 7.23165 6.84673 2.249 12.5628 2.249ZM8.1407 7.17778C7.9397 7.17778 7.6005 7.25858 7.31156 7.59525C7.03517 7.93191 6.21859 8.75338 6.21859 10.3828C6.21859 12.0258 7.33668 13.6014 7.47487 13.8303C7.65075 14.0592 9.68593 17.4259 12.8141 18.8533C13.5553 19.2169 14.1332 19.4189 14.5854 19.5671C15.3266 19.8229 16.005 19.7825 16.5452 19.7017C17.1482 19.6075 18.3794 18.8937 18.6432 18.1127C18.907 17.3316 18.907 16.6717 18.8317 16.5236C18.7437 16.3889 18.5427 16.3081 18.2286 16.16C17.9146 15.9715 16.3819 15.1635 16.1055 15.0558C15.8166 14.948 15.6407 14.8942 15.402 15.2174C15.201 15.554 14.598 16.3081 14.4221 16.5236C14.2337 16.7525 14.0578 16.7795 13.7563 16.6179C13.4296 16.4428 12.4246 16.0927 11.2437 14.9615C10.3141 14.0727 9.69849 12.9819 9.51005 12.6452C9.35929 12.322 9.49749 12.12 9.64824 11.9719C9.78643 11.8238 9.98744 11.5814 10.1131 11.3794C10.2764 11.1908 10.3266 11.0427 10.4271 10.8272C10.5276 10.5983 10.4774 10.4098 10.402 10.2482C10.3266 10.1 9.69849 8.43018 9.43467 7.77032C9.18342 7.12392 8.93216 7.20472 8.73115 7.19125C8.55527 7.19125 8.35427 7.17778 8.1407 7.17778Z" fill="white"/>
</svg>
